<?xml version="1.0" encoding="utf-8" standalone="no"?>
<!DOCTYPE svg PUBLIC "-//W3C//DTD SVG 20010904//EN"
 "http://www.w3.org/TR/2001/REC-SVG-20010904/DTD/svg10.dtd">
<svg version="1.0" xmlns="http://www.w3.org/2000/svg"
 width="512.000000pt" height="512.000000pt" viewBox="0 0 512.000000 512.000000"
 preserveAspectRatio="xMidYMid meet">

<g transform="translate(0.000000,512.000000) scale(0.100000,-0.100000)"
fill="#000000" stroke="none">
<path d="M1475 4629 c-397 -54 -765 -241 -1038 -529 -271 -285 -416 -626 -433
-1015 -14 -320 70 -623 252 -902 l53 -83 -34 -98 c-19 -54 -52 -136 -75 -182
-47 -99 -52 -150 -18 -200 40 -58 64 -69 178 -81 147 -15 308 2 457 47 l83 25
61 -31 c84 -43 274 -105 394 -129 128 -26 341 -43 428 -35 l67 7 0 -284 c0
-313 8 -397 44 -467 33 -64 100 -129 166 -161 l55 -26 1451 -3 1451 -2 34 23
c19 12 42 38 52 57 34 66 23 96 -146 389 l-156 270 -3 898 -3 898 -32 67 c-37
78 -92 137 -165 175 l-53 28 -565 5 -564 5 -14 50 c-79 300 -176 492 -355 703
-234 277 -598 485 -983 563 -87 17 -151 22 -314 25 -113 1 -236 -2 -275 -7z
m550 -317 c287 -62 527 -192 725 -391 254 -256 380 -550 380 -891 0 -649 -504
-1195 -1199 -1300 -41 -6 -139 -11 -218 -11 -227 0 -415 40 -608 127 -55 26
-121 55 -147 67 l-47 21 -108 -37 c-107 -36 -247 -66 -258 -55 -3 3 1 23 9 44
30 76 66 217 66 256 0 47 -6 59 -79 157 -221 298 -293 686 -196 1050 128 476
544 853 1061 960 143 30 142 30 344 26 136 -3 209 -9 275 -23z m2462 -1352
c10 -20 13 -219 13 -923 l0 -898 100 -174 c55 -95 100 -176 100 -179 0 -3
-566 -6 -1258 -6 -965 0 -1261 3 -1270 12 -9 9 -12 99 -12 344 l0 333 58 16
c226 63 458 189 672 364 l41 33 -24 -63 c-14 -35 -59 -156 -102 -267 -69 -182
-77 -209 -72 -255 4 -44 10 -56 45 -89 37 -34 47 -38 94 -38 91 0 121 30 177
179 l37 96 241 3 240 2 38 -100 c55 -146 89 -180 178 -180 75 0 147 70 147
143 0 33 -434 1190 -461 1228 -9 14 -34 34 -54 45 -30 16 -35 23 -31 44 21 97
46 261 46 306 l0 54 522 -2 522 -3 13 -25z m-1098 -1038 c30 -81 56 -153 59
-159 3 -10 -25 -13 -121 -13 l-125 0 61 160 c33 88 63 160 66 160 3 0 30 -67
60 -148z"/>
<path d="M1601 3739 c-76 -13 -183 -52 -249 -91 -31 -18 -95 -71 -142 -118
-149 -148 -217 -324 -208 -535 13 -269 159 -494 402 -617 192 -97 453 -94 647
8 l70 37 47 -46 c50 -49 86 -67 133 -67 59 0 123 52 140 112 15 57 -2 103 -61
163 l-50 51 35 69 c49 98 75 209 75 317 0 120 -22 214 -78 328 -39 79 -60 109
-132 180 -94 94 -163 139 -267 175 -122 42 -242 54 -362 34z m201 -300 c154
-33 274 -143 320 -292 23 -75 22 -189 -3 -255 l-12 -34 -52 52 c-58 57 -104
74 -160 59 -78 -22 -125 -97 -111 -174 5 -26 24 -55 59 -92 41 -44 48 -56 37
-64 -34 -21 -100 -31 -185 -27 -77 3 -100 9 -157 37 -180 89 -275 296 -223
487 57 213 275 348 487 303z"/>
</g>
</svg>
